HIERARCHY
ROOT Hips
{
 OFFSET 0.000000 0.000000 0.000000
 CHANNELS 6 Xposition Yposition Zposition Yrotation Xrotation Zrotation
 JOINT Chest
 {
  OFFSET 0.000000 9.585900 0.002600
  CHANNELS 3 Yrotation Xrotation Zrotation
  JOINT Chest2
  {
   OFFSET 0.000000 9.601200 -0.005300
   CHANNELS 3 Yrotation Xrotation Zrotation
   JOINT Chest3
   {
    OFFSET 0.000000 9.561800 0.000000
    CHANNELS 3 Yrotation Xrotation Zrotation
    JOINT Chest4
    {
     OFFSET 0.000000 9.552100 0.000000
     CHANNELS 3 Yrotation Xrotation Zrotation
     JOINT Neck
     {
      OFFSET 0.000000 14.453000 0.000000
      CHANNELS 3 Yrotation Xrotation Zrotation
      JOINT Head
      {
       OFFSET 0.000000 8.936500 -0.011300
       CHANNELS 3 Yrotation Xrotation Zrotation
       End Site
       {
        OFFSET 0.000000 17.073600 -0.006000
       }
      }
     }
     JOINT RightCollar
     {
      OFFSET -2.921100 9.558500 0.000000
      CHANNELS 3 Yrotation Xrotation Zrotation
      JOINT RightShoulder
      {
       OFFSET -13.519700 0.000000 0.000000
       CHANNELS 3 Yrotation Xrotation Zrotation
       JOINT RightElbow
       {
        OFFSET 0.000000 -29.696600 0.000000
        CHANNELS 3 Yrotation Xrotation Zrotation
        JOINT RightWrist
        {
         OFFSET 0.000000 -24.004700 0.000000
         CHANNELS 3 Yrotation Xrotation Zrotation
         End Site
         {
          OFFSET 0.000000 -17.728500 0.000000
         }
        }
       }
      }
     }
     JOINT LeftCollar
     {
      OFFSET 2.921100 9.558500 0.000000
      CHANNELS 3 Yrotation Xrotation Zrotation
      JOINT LeftShoulder
      {
       OFFSET 13.519700 0.000000 0.000000
       CHANNELS 3 Yrotation Xrotation Zrotation
       JOINT LeftElbow
       {
        OFFSET 0.000000 -29.696600 0.000000
        CHANNELS 3 Yrotation Xrotation Zrotation
        JOINT LeftWrist
        {
         OFFSET 0.000000 -24.004700 0.000000
         CHANNELS 3 Yrotation Xrotation Zrotation
         End Site
         {
          OFFSET 0.000000 -17.728500 0.000000
         }
        }
       }
      }
     }
    }
   }
  }
 }
 JOINT RightHip
 {
  OFFSET -7.771700 -0.012900 -0.001300
  CHANNELS 3 Yrotation Xrotation Zrotation
  JOINT RightKnee
  {
   OFFSET 0.000000 -40.869800 0.001200
   CHANNELS 3 Yrotation Xrotation Zrotation
   JOINT RightAnkle
   {
    OFFSET 0.000000 -39.717900 0.002100
    CHANNELS 3 Yrotation Xrotation Zrotation
    JOINT RightToe
    {
     OFFSET 0.000000 -4.965400 11.033500
     CHANNELS 3 Yrotation Xrotation Zrotation
     End Site
     {
      OFFSET 0.000000 -1.423100 5.872300
     }
    }
   }
  }
 }
 JOINT LeftHip
 {
  OFFSET 7.771700 -0.012900 -0.001300
  CHANNELS 3 Yrotation Xrotation Zrotation
  JOINT LeftKnee
  {
   OFFSET 0.000000 -40.869800 0.001200
   CHANNELS 3 Yrotation Xrotation Zrotation
   JOINT LeftAnkle
   {
    OFFSET 0.000000 -39.717900 0.002100
    CHANNELS 3 Yrotation Xrotation Zrotation
    JOINT LeftToe
    {
     OFFSET 0.000000 -4.965400 11.033500
     CHANNELS 3 Yrotation Xrotation Zrotation
     End Site
     {
      OFFSET 0.000000 -1.423100 5.872300
     }
    }
   }
  }
 }
}
MOTION
Frames: 6
Frame Time: 0.008333
-14.697367 57.753799 68.406431 178.392548 -39.913166 -2.539007 1.637849 30.447807 6.537839 0.003051 6.149515 0.809908 0.004418 9.565830 1.261389 0.500230 24.311827 3.352254 1.113391 6.166295 -9.040102 6.977638 -23.520714 -18.700642 4.281731 2.721079 -3.966664 20.283008 -36.785701 -17.819348 -36.092941 -59.461890 52.819424 1.238423 9.993252 -48.354891 -13.117862 -1.641657 -5.299693 -5.713385 -34.088810 -1.376096 -1.707209 -67.441771 -25.111528 18.142446 -2.059054 28.437964 6.825931 -31.369933 -1.215268 -7.538837 64.433123 -10.435642 4.970824 10.281998 10.034380 -0.711537 0.796062 -0.372675 -8.869847 -37.497035 -1.799769 29.610027 56.581149 29.486622 -9.922292 39.661360 2.078230 0.263457 -18.989018 -7.521886
-14.690237 57.752989 68.408464 178.344516 -39.893985 -2.518454 1.630768 30.448273 6.520578 0.031702 6.139633 0.812277 -0.027170 9.581540 1.263438 0.477079 24.322603 3.355348 1.120005 6.169835 -9.058585 7.009089 -23.518689 -18.740207 4.276801 2.722218 -3.967906 20.295859 -36.787627 -17.830465 -36.128387 -59.492336 52.886033 1.203194 10.001273 -48.375292 -13.111391 -1.650571 -5.307894 -5.708306 -34.087820 -1.371700 -1.600923 -67.458358 -25.230850 18.142763 -2.072072 28.442036 6.772920 -31.396940 -1.220773 -7.375538 64.431110 -10.283798 5.041507 10.293819 10.034535 -0.786258 0.792858 -0.395015 -8.871345 -37.526607 -1.823755 29.662368 56.575883 29.608145 -9.957397 39.660032 2.007557 0.282912 -18.982162 -7.546252
-14.681489 57.751038 68.411672 178.276384 -39.864884 -2.494700 1.677065 30.423318 6.533546 -0.013639 6.159190 0.809705 0.016642 9.564713 1.261529 0.438721 24.338138 3.360816 1.111668 6.176908 -9.065695 7.063050 -23.537400 -18.778001 4.262024 2.729200 -3.961693 20.284166 -36.787215 -17.826519 -36.256966 -59.527324 53.005738 1.218666 10.055917 -48.340036 -13.081062 -1.667487 -5.324746 -5.770257 -34.055119 -1.343281 -1.526589 -67.492920 -25.266287 18.186393 -2.059156 28.376065 6.772547 -31.436828 -1.210498 -7.301651 64.421513 -10.201239 5.063142 10.322440 10.028624 -0.805608 0.790481 -0.408895 -8.853359 -37.560036 -1.811836 29.687155 56.576655 29.667273 -9.959074 39.665926 1.997534 0.287002 -18.944869 -7.575572
-14.666048 57.750350 68.413482 178.227470 -39.846405 -2.523822 1.678511 30.427000 6.558759 -0.080289 6.184550 0.800130 0.027208 9.567015 1.262396 0.532757 24.303833 3.344730 1.072367 6.193298 -9.052536 7.088973 -23.530129 -18.813800 4.218868 2.746020 -3.936884 20.292171 -36.791975 -17.834158 -36.385307 -59.550608 53.109511 1.222300 10.107380 -48.323153 -13.132145 -1.640497 -5.303634 -5.795374 -34.045788 -1.327553 -1.390637 -67.520214 -25.388779 18.185549 -2.071019 28.384914 6.733089 -31.467491 -1.157394 -7.261957 64.402120 -10.128235 5.095636 10.376981 10.000190 -0.819151 0.772287 -0.418235 -8.879038 -37.576858 -1.756698 29.666572 56.595521 29.732246 -10.045509 39.637376 1.850947 0.347477 -18.924176 -7.573694
-14.658482 57.749046 68.414592 178.171438 -39.826795 -2.502866 1.661222 30.431517 6.531489 -0.082371 6.185993 0.800042 0.007671 9.576795 1.261238 0.486788 24.323323 3.344602 1.141337 6.168773 -9.099222 7.094913 -23.520053 -18.836796 4.270539 2.728842 -3.966093 20.303186 -36.795490 -17.840911 -36.468258 -59.570673 53.187490 1.199521 10.137466 -48.339389 -13.079400 -1.662061 -5.325643 -5.759245 -34.065545 -1.339489 -1.286559 -67.515114 -25.530300 18.166675 -2.089841 28.418858 6.726917 -31.496998 -1.162586 -7.209933 64.393165 -10.041389 5.102974 10.415064 9.953277 -0.810379 0.769950 -0.414635 -8.906113 -37.611594 -1.793324 29.793928 56.580332 29.903830 -9.907443 39.637374 1.956294 0.263319 -18.909672 -7.658391
-14.647517 57.746059 68.417326 178.104902 -39.792799 -2.498212 1.662970 30.419395 6.528884 -0.082859 6.188501 0.800682 0.006042 9.579620 1.260418 0.497921 24.319871 3.340863 1.172726 6.158978 -9.119647 7.070917 -23.499555 -18.840000 4.251825 2.732263 -3.954877 20.359055 -36.798853 -17.872575 -36.563029 -59.579451 53.244752 1.189547 10.164891 -48.346435 -13.145185 -1.642012 -5.293286 -5.662700 -34.100761 -1.377405 -1.201663 -67.514875 -25.636797 18.139429 -2.112068 28.464616 6.715641 -31.543166 -1.157337 -7.245042 64.367297 -9.990369 5.111655 10.473955 9.844672 -0.760269 0.769344 -0.392916 -8.933694 -37.651716 -1.778719 29.888417 56.568762 30.024541 -9.781828 39.635775 2.068193 0.179080 -18.891075 -7.734212
